# xmcd
#
# Track frame offsets:
#	150
#	16991
#	32775
#	41784
#	64782
#	80386
#	91198
#	103193
#	113326
#	130660
#	158736
#	168196
#	185205
#	214448
#	243179
#	259308
#	271612
#	285716
#	300048
#	313100
#	327058
#	339886
#
# Disc length: 4787 seconds
#
# Revision: 2
# Processed by: cddbd v1.5.2PL0 Copyright (c) Steve Scherf et al.
# Submitted via: EZCDAudioConverter 1.3.4.1
#
DISCID=2212b116
DTITLE=Bobby Womack - The Best Of...
DYEAR=2008
DGENRE=
TTITLE0=Across 110th Street
TTITLE1=Woman's Gotta Have It
TTITLE2=I'm A Midnight Mover
TTITLE3=That's The Way I Feel About Cha
TTITLE4=You're Welcome, Stop On By
TTITLE5=Lookin' For A Love
TTITLE6=I'm In Love
TTITLE7=I Left My Heart In San Francisco
TTITLE8=Communication [Single]
TTITLE9=Fact Of Life - He'll Be There When The Sun Goes Down
TTITLE10=Fly Me To The Moon
TTITLE11=Harry Hippie
TTITLE12=I Can Understand It
TTITLE13=The Preacher (Part 2) - More Than I Can Stand [Live]
TTITLE14=I'm Through Trying To Prove My Love To You
TTITLE15=It's All Over Now
TTITLE16=California Dreamin'
TTITLE17=How I Miss You Baby
TTITLE18=Nobody Wants You When You're Down And Out
TTITLE19=Daylight
TTITLE20=Check It Out [Single]
TTITLE21=Fire And Rain
EXTD=
EXTT0=
EXTT1=
EXTT2=
EXTT3=
EXTT4=
EXTT5=
EXTT6=
EXTT7=
EXTT8=
EXTT9=
EXTT10=
EXTT11=
EXTT12=
EXTT13=
EXTT14=
EXTT15=
EXTT16=
EXTT17=
EXTT18=
EXTT19=
EXTT20=
EXTT21=
PLAYORDER=
